<?xml version="1.0" encoding="UTF-8"?>
<svg width="720px" height="130px" viewBox="0 0 720 130" version="1.1" xmlns="http://www.w3.org/2000/svg" xmlns:xlink="http://www.w3.org/1999/xlink">
    <!-- Generator: Sketch 56.3 (81716) - https://sketch.com -->
    <title>two-sigma</title>
    <desc>Created with Sketch.</desc>
    <g id="Page-1" stroke="none" stroke-width="1" fill="none" fill-rule="evenodd">
        <g id="logo-mobile" fill-rule="nonzero">
            <g id="Group" transform="translate(162.000000, 31.000000)" fill="#FFFFFF">
                <polygon id="Path" points="23 11.2 0.6 11.2 0.6 1.3 56.4 1.3 56.4 11.2 34.1 11.2 34.1 66 23 66"></polygon>
                <polygon id="Path" points="66.9 1.3 78.6 1.3 93.5 50.4 93.7 50.4 107.7 1.3 118 1.3 132 50.4 132.2 50.4 147.1 1.3 158.8 1.3 138.4 66 126.5 66 112.9 18.6 112.7 18.6 99.1 66 87.2 66"></polygon>
                <path d="M196,57.5 C208.2,57.5 217.7,48.4 217.7,33.3 C217.7,18.7 208.3,9.7 196,9.7 C183.7,9.7 174.3,18.7 174.3,33.3 C174.3,48.4 183.8,57.5 196,57.5 M196,0.2 C214.8,0.2 229,13.2 229,33.3 C229,53.8 214.8,67.1 196,67.1 C177.2,67.1 162.9,53.8 162.9,33.3 C162.9,13.2 177.2,0.2 196,0.2" id="Shape"></path>
                <polygon id="Path" points="323.9 1.3 335 1.3 335 36.2 335 66 323.9 66 323.9 29.8"></polygon>
                <path d="M382.6,0.2 C391.5,0.2 399,3 405.5,7.5 C405.5,7.5 399.2,14.9 398.8,14.7 C393.9,11.6 388.7,9.8 382.8,9.8 C369.5,9.8 360.7,19.4 360.7,33.1 C360.7,48 368.9,57.5 382.8,57.5 C387.6,57.5 392.4,56.3 395.7,54.4 L395.7,39 L379.4,39 L379.4,30.8 L405.9,30.8 L405.9,60.1 C399.6,64.5 391.4,67.1 382.4,67.1 C362.2,67.1 349.2,53.4 349.2,33.1 C349.5,14.1 362.6,0.2 382.6,0.2" id="Path"></path>
                <polygon id="Path" points="421.8 1.3 433 1.3 454.3 31.7 475.7 1.3 486.8 1.3 486.8 66 476 66 476 17.8 454.2 48.3 432.4 17.8 432.4 66 421.8 66"></polygon>
                <path d="M517,43.1 L538,43.1 L527.6,13 L527.4,13 L517,43.1 Z M521,1.3 L534,1.3 L558,66 L546.1,66 L541.2,52.1 L513.9,52.1 L509.1,66 L497.1,66 L521,1.3 Z" id="Shape"></path>
                <path d="M266.6,52 C272.4,55.2 277.9,57.3 285,57.3 C293.5,57.3 297.7,53.6 297.7,48.4 C297.7,33.8 261.3,43.4 261.3,18.7 C261.3,8.4 269.9,0.1 284.4,0.1 C292.9,0.1 301.4,2.1 308.1,6.1 L300.9,13.5 C295.6,11.2 291.2,9.9 284.8,9.9 C277.3,9.9 272.9,13.7 272.9,18.5 C272.9,33 309.3,23.1 309.3,48.2 C309.3,58.8 301.3,67 285,67 C275.5,67 265.2,63.6 259.1,59.4 L266.6,52 Z" id="Path"></path>
            </g>
            <g id="Group">
                <polygon id="Path" fill="#009AA6" points="64.6 0 0 64.7 64.6 129.3 129.2 64.7"></polygon>
                <path d="M30.5,83 C30,62.3 54.9,65 54.9,54.4 C54.9,51 52.2,48 46.2,48 C41.8,48 37.6,50.2 34.5,53 L29.9,48.4 C33.8,44.7 40,41.7 46.5,41.7 C56.8,41.7 62.1,47.5 62.1,54.2 C62.1,69.8 37.9,67.1 37.9,80.1 L61.7,80.1 L61.7,86.3 L30.6,86.3 L30.5,83 Z" id="Path" fill="#FFFFFF"></path>
                <path d="M110.9,52.4 L84.5,52.4 L84.5,52.4 C73.7,52.4 65.6,61 65.6,72.5 C65.6,81.6 71.5,87.1 79.8,87.1 C90.6,87.1 98.8,78.5 98.8,67.1 C98.8,63.4 97.8,60.3 96.1,57.9 L105.3,57.9 L110.9,52.4 Z M80.4,81.4 C75.6,81.4 72.8,78.3 72.8,72.4 C72.8,64.9 77.8,58.1 83.8,58.1 C88.5,58.1 91.3,61.2 91.3,67.1 C91.4,74.7 86.5,81.4 80.4,81.4 Z" id="Shape" fill="#FFFFFF"></path>
            </g>
        </g>
    </g>
</svg>